<svg xmlns="http://www.w3.org/2000/svg" width="48" height="48" fill="none" viewBox="0 0 48 48"><path fill="#fff" fill-rule="evenodd" d="M24 1.4a22.6 22.6 0 1 0 0 45.2 22.6 22.6 0 0 0 0-45.2M0 24a24 24 0 1 1 48 0 24 24 0 0 1-48 0" clip-rule="evenodd"/><mask id="a" width="46" height="46" x="1" y="1" maskUnits="userSpaceOnUse" style="mask-type:alpha"><path fill="#D74172" d="M1.4 24a22.6 22.6 0 1 1 45.2 0 22.6 22.6 0 0 1-45.2 0"/></mask><g mask="url(#a)"><path fill="#746EE0" d="M2 49.6h43V24H2z"/><path fill="#7FC9F3" d="M1.4 58 24 24H-7.8z"/><path fill="#81E27F" d="m24 24 19 31.2L55.8 24z"/><path fill="#F2982C" d="M2.1-1.5h42.8v25.6H2.1z"/><path fill="#FADD81" d="m1.4-9.9 22.6 34H-7.8z"/><path fill="#EB55AA" d="M24 24.1 43-7l12.9 31.2z"/></g><circle cx="24" cy="24" r="2.3" fill="#fff"/></svg>